<?xml version="1.0" encoding="UTF-8"?>
<!-- Generated by Pixelmator Pro 3.4.3 -->
<svg width="500" height="500" viewBox="0 0 500 500" xmlns="http://www.w3.org/2000/svg">
    <path id="Ellipse" fill="none" stroke="#000000" stroke-width="11" d="M 259.265625 17.640625 L 265.40625 17.9375 L 271.484375 18.34375 L 277.546875 18.890625 L 283.546875 19.578125 L 289.5 20.40625 L 295.421875 21.34375 L 301.28125 22.4375 L 307.09375 23.640625 L 312.828125 24.96875 L 318.53125 26.421875 L 324.171875 28 L 329.75 29.703125 L 335.265625 31.515625 L 340.734375 33.46875 L 346.109375 35.5 L 351.421875 37.671875 L 356.6875 39.953125 L 361.859375 42.34375 L 366.96875 44.828125 L 372 47.4375 L 376.96875 50.140625 L 381.84375 52.96875 L 386.625 55.875 L 391.34375 58.90625 L 395.96875 62.015625 L 400.515625 65.234375 L 404.96875 68.53125 L 409.34375 71.9375 L 413.609375 75.4375 L 417.78125 79.015625 L 421.859375 82.6875 L 425.859375 86.453125 L 429.734375 90.3125 L 433.546875 94.234375 L 437.21875 98.25 L 440.796875 102.359375 L 444.265625 106.515625 L 447.625 110.78125 L 450.875 115.109375 L 454 119.5 L 457.03125 124 L 459.9375 128.546875 L 462.71875 133.15625 L 465.390625 137.8125 L 467.9375 142.578125 L 470.359375 147.390625 L 472.640625 152.28125 L 474.796875 157.203125 L 476.828125 162.203125 L 478.734375 167.25 L 480.5 172.375 L 482.125 177.53125 L 483.625 182.734375 L 484.96875 188 L 486.171875 193.3125 L 487.234375 198.65625 L 488.15625 204.0625 L 488.921875 209.515625 L 489.390625 213.625 L 489.65625 216.359375 L 489.90625 219.125 L 490.09375 221.90625 L 490.265625 224.703125 L 490.375 227.484375 L 490.453125 230.28125 L 490.484375 233.0625 L 490.5 234.5 L 490.484375 235.921875 L 490.453125 238.703125 L 490.375 241.5 L 490.265625 244.28125 L 490.09375 247.078125 L 489.90625 249.859375 L 489.65625 252.625 L 489.390625 255.359375 L 488.921875 259.46875 L 488.15625 264.921875 L 487.234375 270.328125 L 486.171875 275.671875 L 484.96875 280.984375 L 483.625 286.25 L 482.125 291.453125 L 480.5 296.609375 L 478.734375 301.734375 L 476.828125 306.78125 L 474.796875 311.78125 L 472.640625 316.703125 L 470.359375 321.59375 L 467.9375 326.40625 L 465.390625 331.171875 L 462.71875 335.828125 L 459.9375 340.4375 L 457.03125 345 L 454 349.484375 L 450.875 353.875 L 447.625 358.203125 L 444.265625 362.46875 L 440.796875 366.625 L 437.21875 370.734375 L 433.546875 374.75 L 429.734375 378.671875 L 425.859375 382.53125 L 421.859375 386.296875 L 417.78125 389.96875 L 413.609375 393.546875 L 409.34375 397.046875 L 404.96875 400.453125 L 400.515625 403.75 L 395.96875 406.96875 L 391.34375 410.078125 L 386.625 413.109375 L 381.84375 416.015625 L 376.96875 418.84375 L 372 421.546875 L 366.96875 424.15625 L 361.859375 426.640625 L 356.6875 429.03125 L 351.421875 431.3125 L 346.109375 433.484375 L 340.734375 435.515625 L 335.265625 437.46875 L 329.75 439.28125 L 324.171875 440.984375 L 318.53125 442.5625 L 312.828125 444.015625 L 307.09375 445.34375 L 301.28125 446.546875 L 295.421875 447.640625 L 289.5 448.578125 L 283.546875 449.40625 L 277.546875 450.09375 L 271.484375 450.640625 L 265.40625 451.046875 L 259.265625 451.34375 L 253.109375 451.484375 L 250 451.5 L 246.875 451.484375 L 240.71875 451.34375 L 234.578125 451.046875 L 228.5 450.640625 L 222.4375 450.09375 L 216.4375 449.40625 L 210.484375 448.578125 L 204.5625 447.640625 L 198.703125 446.546875 L 192.890625 445.34375 L 187.15625 444.015625 L 181.453125 442.5625 L 175.8125 440.984375 L 170.234375 439.28125 L 164.71875 437.46875 L 159.25 435.515625 L 153.875 433.484375 L 148.5625 431.3125 L 143.296875 429.03125 L 138.125 426.640625 L 133.015625 424.15625 L 127.984375 421.546875 L 123.015625 418.84375 L 118.140625 416.015625 L 113.359375 413.109375 L 108.640625 410.078125 L 104.015625 406.96875 L 99.46875 403.75 L 95.015625 400.453125 L 90.640625 397.046875 L 86.375 393.546875 L 82.203125 389.96875 L 78.125 386.296875 L 74.125 382.53125 L 70.25 378.671875 L 66.4375 374.75 L 62.765625 370.734375 L 59.1875 366.625 L 55.71875 362.46875 L 52.359375 358.203125 L 49.109375 353.875 L 45.984375 349.484375 L 42.953125 345 L 40.046875 340.4375 L 37.265625 335.828125 L 34.59375 331.171875 L 32.046875 326.40625 L 29.625 321.59375 L 27.34375 316.703125 L 25.1875 311.78125 L 23.15625 306.78125 L 21.25 301.734375 L 19.484375 296.609375 L 17.859375 291.453125 L 16.359375 286.25 L 15.015625 280.984375 L 13.8125 275.671875 L 12.75 270.328125 L 11.828125 264.921875 L 11.0625 259.46875 L 10.59375 255.359375 L 10.328125 252.625 L 10.078125 249.859375 L 9.890625 247.078125 L 9.71875 244.28125 L 9.609375 241.5 L 9.53125 238.703125 L 9.5 235.890625 L 9.5 233.09375 L 9.53125 230.28125 L 9.609375 227.484375 L 9.71875 224.703125 L 9.890625 221.90625 L 10.078125 219.125 L 10.328125 216.359375 L 10.59375 213.625 L 11.0625 209.515625 L 11.828125 204.0625 L 12.75 198.65625 L 13.8125 193.3125 L 15.015625 188 L 16.359375 182.734375 L 17.859375 177.53125 L 19.484375 172.375 L 21.25 167.25 L 23.15625 162.203125 L 25.1875 157.203125 L 27.34375 152.28125 L 29.625 147.390625 L 32.046875 142.578125 L 34.59375 137.8125 L 37.265625 133.15625 L 40.046875 128.546875 L 42.953125 124 L 45.984375 119.5 L 49.109375 115.109375 L 52.359375 110.78125 L 55.71875 106.515625 L 59.1875 102.359375 L 62.765625 98.25 L 66.4375 94.234375 L 70.25 90.3125 L 74.125 86.453125 L 78.125 82.6875 L 82.203125 79.015625 L 86.375 75.4375 L 90.640625 71.9375 L 95.015625 68.53125 L 99.46875 65.234375 L 104.015625 62.015625 L 108.640625 58.90625 L 113.359375 55.875 L 118.140625 52.96875 L 123.015625 50.140625 L 127.984375 47.4375 L 133.015625 44.828125 L 138.125 42.34375 L 143.296875 39.953125 L 148.5625 37.671875 L 153.875 35.5 L 159.25 33.46875 L 164.71875 31.515625 L 170.234375 29.703125 L 175.8125 28 L 181.453125 26.421875 L 187.15625 24.96875 L 192.890625 23.640625 L 198.703125 22.4375 L 204.5625 21.34375 L 210.484375 20.40625 L 216.4375 19.578125 L 222.4375 18.890625 L 228.5 18.34375 L 234.578125 17.9375 L 240.71875 17.640625 L 246.890625 17.5 L 253.09375 17.5 Z"/>
    <path id="Shape" fill="#000000" fill-rule="evenodd" stroke="none" d="M 190.802078 397.202423 C 159.158203 397.347534 150.012146 397.156494 147.651245 396.301178 C 146.003494 395.704193 142.993896 394.242096 140.963226 393.052063 C 138.932571 391.862 135.447861 388.842651 133.219421 386.342407 C 130.990982 383.842163 128.215607 379.874268 127.05191 377.524811 C 125.888222 375.175385 123.799759 368.090332 122.410889 361.780273 C 121.022018 355.470215 119.247223 349.446289 118.466888 348.393799 C 117.686569 347.341309 115.019882 345.128723 112.540932 343.476868 C 109.693878 341.579773 107.474388 339.328552 106.515121 337.364868 C 105.496216 335.279083 105.161049 333.379028 105.496574 331.590515 C 105.771614 330.124451 107.008148 327.73999 108.244431 326.291718 C 110.004005 324.230438 111.721169 323.36084 116.150551 322.288025 C 119.454338 321.487793 123.249855 319.871277 125.271736 318.403229 C 127.1763 317.020355 130.530365 314.506042 132.725204 312.815796 C 134.920059 311.12558 137.637772 309.466125 138.764557 309.128113 C 139.891357 308.7901 160.953323 308.51355 185.568939 308.51355 C 225.265732 308.51355 230.641556 308.664673 233.128723 309.850708 C 234.67099 310.586182 238.462891 313.127075 241.555145 315.497192 C 246.717941 319.454224 247.686676 319.872131 253.408279 320.610107 C 256.835236 321.052155 263.570282 321.277039 268.375031 321.109833 C 276.812714 320.816223 277.218384 320.716003 280.257629 318.174622 C 281.988281 316.727448 285.253021 314.237091 287.512543 312.640503 C 290.023285 310.866455 293.369232 309.390137 296.117188 308.844055 C 299.126251 308.246033 314.302338 308.043549 341.997711 308.231995 C 383.381866 308.51355 383.381866 308.51355 386.590118 310.409485 C 388.354675 311.452271 391.810486 314.033661 394.269714 316.145935 C 396.728912 318.258179 399.526093 320.434265 400.485565 320.981689 C 401.445068 321.529114 403.336426 321.998169 404.688568 322.024048 C 406.040741 322.049927 408.72821 322.788696 410.660706 323.665833 C 413.188995 324.813293 414.510468 326.06488 415.372772 328.128662 C 416.031891 329.706146 416.571167 332.063538 416.571167 333.367249 C 416.571167 334.67099 415.615143 337.172028 414.446655 338.92511 C 413.278198 340.678223 410.270905 344.209229 407.763794 346.77182 C 403.205414 351.431091 403.205414 351.431091 400.082733 363.908325 C 397.631683 373.702026 396.326721 377.339386 394.015381 380.820557 C 392.395782 383.259827 389.391479 386.864563 387.339081 388.831085 C 385.286713 390.797607 381.624969 393.444214 379.201904 394.712433 C 374.796326 397.01828 374.796326 397.01828 334.427002 397.01828 C 296.190002 397.01828 293.889252 396.934723 290.869751 395.43634 C 289.116455 394.566284 285.769684 391.984894 283.432556 389.699921 C 281.095428 387.414978 278.211212 384.070374 277.023193 382.267487 C 275.835205 380.46463 274.292236 376.754272 273.594391 374.022278 C 272.896545 371.290283 272.005432 363.32959 271.614166 356.331848 C 271.222839 349.334106 270.477875 342.81488 269.958679 341.844727 C 269.439453 340.874573 267.874451 339.491211 266.480927 338.770569 C 264.888733 337.947205 262.994476 337.640778 261.383392 337.945953 C 259.973328 338.213043 257.805817 339.259796 256.566711 340.272095 C 254.507126 341.95462 254.247055 342.815796 253.535965 350.307434 C 253.108154 354.814636 252.557999 362.005646 252.3134 366.287476 C 251.928391 373.0271 251.481476 374.860352 248.98558 379.938538 C 247.038498 383.900085 244.666061 387.11731 241.677979 389.848267 C 239.244492 392.072327 235.836761 394.595428 234.10524 395.455139 C 231.15358 396.920685 228.449799 397.029785 190.802078 397.202423 Z M 186.704636 380.917664 C 198.874054 380.97934 212.472473 380.788666 216.92337 380.493958 C 224.134018 380.01651 225.428909 379.682068 228.805954 377.42511 C 231.317276 375.746704 233.25116 373.571045 234.537872 370.976501 C 236.331787 367.359314 236.487915 366.011017 236.586594 353.284515 C 236.662476 343.501099 236.368729 338.579163 235.573166 336.303162 C 234.957016 334.540405 233.481949 332.038635 232.295212 330.743652 C 231.10849 329.448669 228.950867 327.881409 227.500519 327.260864 C 225.379028 326.353088 216.96814 326.134888 184.477371 326.144592 C 154.035294 326.153717 143.586792 326.406616 142.042511 327.171753 C 140.915726 327.730042 139.134811 329.845032 138.084946 331.871735 C 136.374634 335.173401 136.227219 336.276031 136.667618 342.473419 C 136.937943 346.277649 137.542633 351.993591 138.011337 355.175476 C 138.480057 358.357422 139.409164 362.912079 140.076035 365.296997 C 140.815231 367.940582 142.453461 370.922638 144.272949 372.936584 C 145.914398 374.753479 148.757629 377.014038 150.591248 377.960083 C 152.424866 378.906128 156.322113 379.93338 159.25177 380.242859 C 162.181442 380.552368 174.535233 380.856018 186.704636 380.917664 Z M 334.622314 380.098114 C 360.178284 380.136566 367.660583 379.908569 370.167816 379.014862 C 371.914459 378.392273 374.620331 376.656799 376.180908 375.158264 C 377.741486 373.659729 379.725128 371.062378 380.588959 369.386353 C 381.45282 367.710327 382.727234 364.022644 383.420929 361.191467 C 384.114655 358.360291 384.902863 350.840454 385.172516 344.480774 C 385.66275 332.917664 385.66275 332.917664 382.742767 329.72998 C 379.822815 326.542297 379.822815 326.542297 371.358734 326.217072 C 366.703491 326.038208 349.065796 325.942535 332.163849 326.004486 C 314.219513 326.070251 300.191803 326.463745 298.449951 326.950226 C 296.714935 327.434814 294.229187 329.15332 292.508667 331.057739 C 289.550446 334.332153 289.550446 334.332153 289.550446 352.78656 C 289.550446 371.241028 289.550446 371.241028 292.865906 374.837891 C 294.922821 377.069366 297.333649 378.74118 299.216949 379.242065 C 300.950104 379.703003 316.140625 380.070282 334.622314 380.098114 Z M 79.785812 93.807556 C 82.810745 97.618164 85.91848 101.702057 88.643456 105.341309 C 91.368423 108.98056 96.122398 114.339569 99.20784 117.250214 C 102.293274 120.160858 107.42395 124.274933 110.609352 126.392578 C 113.794754 128.510223 119.189796 131.56723 122.598335 133.185944 C 126.006874 134.804657 132.052795 137.028748 136.033722 138.128326 C 140.014633 139.227936 145.168304 140.353851 147.486298 140.630371 C 151.261642 141.08075 151.757019 140.956207 152.239822 139.435028 C 152.590393 138.330475 151.435059 134.355957 148.934616 128.064545 C 146.820313 122.744751 144.07103 115.052277 142.825089 110.970123 C 141.579147 106.888 140.097 100.0112 139.531448 95.688354 C 138.878189 90.695251 138.691772 84.136871 139.020325 77.706299 C 139.315765 71.923798 140.253983 64.773132 141.208633 61.028015 C 142.127762 57.422272 143.889893 52.458374 145.124481 49.997131 C 146.35907 47.535919 147.758865 45.408539 148.235138 45.269592 C 148.711395 45.130676 152.767593 48.803864 157.248901 53.432251 C 161.730194 58.060638 167.793991 64.197906 170.723999 67.070618 C 173.654007 69.943329 179.00145 74.600159 182.607193 77.419159 C 186.212936 80.238129 192.003586 84.266022 195.475266 86.369965 C 198.946945 88.473938 205.216049 91.795471 209.40657 93.751129 C 213.597092 95.706787 220.713409 98.437653 225.220596 99.819672 C 229.727783 101.201752 235.812485 102.716003 238.742157 103.184753 C 241.671829 103.653473 250.337921 104.242981 258.000153 104.494843 C 265.662354 104.746643 278.266052 105.300568 286.008362 105.7258 C 297.451416 106.354248 301.361328 106.901367 306.905304 108.649841 C 310.656311 109.832855 316.283722 112.087372 319.410645 113.659851 C 322.537567 115.23233 326.981628 117.911987 329.286346 119.614594 C 331.591095 121.317169 335.327271 124.873199 337.58902 127.516846 C 339.850739 130.160522 343.150818 134.439575 344.922546 137.025848 C 346.694275 139.612152 348.572052 141.732574 349.095367 141.737915 C 349.618713 141.743256 350.909424 140.71637 351.963593 139.455994 C 353.017792 138.195587 356.208923 133.309387 359.054993 128.597778 C 361.901062 123.886139 365.116913 118.932434 366.201355 117.589539 C 367.725311 115.702362 368.39444 115.369263 369.147919 116.122772 C 369.812714 116.787537 370.330994 123.689728 370.777405 137.822388 C 371.137482 149.221008 371.647919 159.414032 371.911774 160.473602 C 372.330475 162.154968 372.777771 162.353729 375.428192 162.03595 C 377.098419 161.835724 381.613556 161.018707 385.461884 160.220428 C 390.569946 159.160797 394.994476 158.855164 401.851654 159.088287 C 410.677399 159.388336 411.557251 159.575958 416.42453 162.195679 C 419.27359 163.729095 423.14566 166.35672 425.029175 168.03479 C 426.912689 169.71283 428.208405 171.337189 427.908539 171.644409 C 427.608673 171.95166 423.580627 172.531616 418.957306 172.933197 C 414.333984 173.334778 410.182526 174.032074 409.731842 174.482758 C 409.185608 175.029022 409.207184 175.924316 409.796478 177.168274 C 410.282684 178.194611 413.503845 182.168915 416.954559 186 C 420.405273 189.831085 424.686554 195.178284 426.468536 197.882568 C 428.250519 200.586884 430.896851 205.749664 432.349304 209.355408 C 434.952515 215.818085 434.990204 216.104736 434.999847 229.510742 C 435.007294 239.856842 434.740051 243.435272 433.882721 244.469101 C 432.854248 245.70932 432.478149 245.57724 429.578033 242.957153 C 427.76123 241.315735 425.537445 240.086243 424.385529 240.086243 C 422.738586 240.086243 422.232208 240.647278 421.611877 243.159332 C 421.194519 244.849518 420.468292 249.59465 419.998077 253.704071 C 419.527832 257.813477 418.167297 264.082581 416.97464 267.635376 C 415.782013 271.188171 413.509705 276.562286 411.92511 279.57782 C 410.340454 282.593384 407.861084 286.429016 406.415375 288.10144 C 404.084076 290.798401 403.262909 291.18573 399.153717 291.526489 C 396.60556 291.737793 393.610382 291.68222 392.497772 291.402985 C 391.15506 291.065979 390.182709 289.999634 389.605896 288.231567 C 389.12796 286.766541 387.611664 276.761841 386.236359 265.998962 C 384.861053 255.236069 383.366608 245.74025 382.915375 244.897141 C 382.464142 244.054031 381.445953 243.364197 380.652679 243.364197 C 379.859436 243.364197 376.276917 245.989639 372.691528 249.198517 C 369.10614 252.407394 363.997253 256.514893 361.33847 258.326355 C 358.679688 260.137756 353.395966 262.87323 349.596893 264.405121 C 345.797791 265.937042 339.675842 267.902313 335.992554 268.7724 C 332.309235 269.642517 325.054779 270.751282 319.871521 271.236328 C 314.688232 271.721436 309.064514 271.885315 307.374329 271.600525 C 305.684113 271.315735 304.305176 270.654175 304.309937 270.130432 C 304.314728 269.606628 305.810638 267.334229 307.634216 265.080627 C 309.457764 262.827026 312.443726 258.824524 314.269684 256.186096 C 316.095642 253.547714 318.688568 248.384933 320.031738 244.713272 C 321.581146 240.477936 322.522491 236.250153 322.606812 233.148132 C 322.718262 229.04837 322.503326 228.210571 321.275909 227.96051 C 320.419922 227.786102 315.826385 230.487549 310.21283 234.466675 C 304.933197 238.209076 297.663391 243.064484 294.057617 245.25647 C 290.451874 247.448456 284.367157 250.815811 280.536072 252.739502 C 276.704987 254.663193 269.698334 257.738983 264.96579 259.574585 C 260.072357 261.472565 251.412888 263.909851 244.888321 265.225586 C 234.326111 267.355469 231.951996 267.539124 214.97699 267.539124 C 202.266266 267.539124 195.456589 267.210693 193.055679 266.481842 C 191.140121 265.90036 189.572845 264.930969 189.572845 264.327667 C 189.572845 263.724365 190.586975 262.849365 191.826447 262.383209 C 193.065918 261.917053 198.31842 260.177673 203.498703 258.517883 C 208.678955 256.858093 215.869965 254.026962 219.478729 252.226471 C 223.087479 250.42601 228.44458 247.354645 231.383423 245.401245 C 234.322235 243.447845 240.126328 238.424042 244.281403 234.237244 C 248.540131 229.945984 252.823151 224.738464 254.098602 222.300964 C 255.885788 218.885559 256.171631 217.673981 255.459015 216.534485 C 254.962845 215.741028 253.605438 214.977631 252.442566 214.838013 C 251.279709 214.698395 243.203964 216.173462 234.496475 218.115967 C 218.664688 221.647736 218.664688 221.647736 198.996964 221.647736 C 181.59021 221.647736 178.481384 221.442413 171.953842 219.861359 C 167.897385 218.878845 160.602905 217.059448 155.743896 215.818237 C 147.619858 213.742981 146.803162 213.667694 145.588943 214.881897 C 144.655243 215.815582 144.07016 218.679718 143.591156 224.661438 C 143.218597 229.313965 142.508499 236.07074 142.013153 239.676483 C 141.517807 243.282227 140.368683 249.182571 139.459534 252.788315 C 138.550385 256.394043 136.690201 262.847534 135.32579 267.129364 C 133.96138 271.411194 131.759064 277.516022 130.431732 280.695679 C 129.104401 283.875305 127.209557 287.462952 126.220963 288.668274 C 124.994911 290.163025 123.381477 290.990784 121.145561 291.272034 C 119.34269 291.49884 117.099991 291.357178 116.161789 290.957214 C 115.223595 290.55722 113.44799 289.032043 112.216019 287.567932 C 110.984047 286.103821 108.697517 282.367065 107.134857 279.264038 C 105.572205 276.161011 103.19825 270.35257 101.859406 266.356384 C 100.520569 262.360229 98.853409 256.325989 98.154602 252.946915 C 97.455803 249.567856 96.995728 244.655258 97.132225 242.030029 C 97.380394 237.256897 97.380394 237.256897 100.976387 236.64624 C 102.954185 236.310425 104.7929 235.815125 105.062416 235.545593 C 105.33194 235.276062 104.781967 233.648926 103.840263 231.929688 C 102.898552 230.21048 98.294067 223.962555 93.608063 218.045441 C 88.922066 212.128357 83.03965 203.880371 80.536026 199.716614 C 78.032402 195.552856 74.581711 189.031555 72.867813 185.224792 C 71.153931 181.41806 68.818687 174.780212 67.678391 170.473999 C 65.968475 164.016693 65.536797 160.169556 65.21521 148.521912 C 64.856567 135.532379 64.993805 133.645447 66.925629 125.004791 C 68.080818 119.83786 70.516769 111.811066 72.33886 107.167419 C 74.16095 102.523804 76.581917 97.618164 77.718781 96.266022 L 79.785812 93.807556 Z"/>
</svg>
