<svg id="Layer_2" data-name="Layer 2" xmlns="http://www.w3.org/2000/svg" viewBox="0 0 24 24" fill="#000"><path d="M22,5.89a8.34,8.34,0,0,1-2.36.64A4.07,4.07,0,0,0,21.45,4.3a8.41,8.41,0,0,1-2.61,1,4.12,4.12,0,0,0-3-1.28,4.08,4.08,0,0,0-4.11,4,3.93,3.93,0,0,0,.11.92A11.73,11.73,0,0,1,3.39,4.74a4,4,0,0,0,1.27,5.39,4.2,4.2,0,0,1-1.86-.5v0a4.07,4.07,0,0,0,3.29,4A4.32,4.32,0,0,1,5,13.78a3.94,3.94,0,0,1-.77-.08,4.09,4.09,0,0,0,3.83,2.81A8.3,8.3,0,0,1,3,18.24a7.93,7.93,0,0,1-1-.06A11.75,11.75,0,0,0,8.29,20,11.5,11.5,0,0,0,20,8.5V8A8.15,8.15,0,0,0,22,5.89Z" fill="#000"></path></svg>